<svg width="300" height="300" viewBox="0 0 300 300" fill="none" xmlns="http://www.w3.org/2000/svg">
<rect width="300" height="300" rx="100" fill="#1B2435"/>
<path d="M121.508 116C106.708 121.2 99.3409 132.833 97.5076 138H137.508C177.108 134.4 195.508 106 202.008 93H226.508C215.708 121.8 189.008 145 177.508 149.5C195.108 158.7 220.008 185 226.508 207H200.508C195.308 187.4 163.008 165.5 151.508 160C150.508 160.5 145.508 160.667 143.008 161H97.0076C105.508 182 120.508 184 138.508 185C156.639 186.007 170.008 200.667 174.508 207H120.508C86.5076 202.5 74.0708 167.886 73.5076 160C73.0076 153 72.6743 142.833 73.5076 138C79.9076 109.2 107.174 96 120.008 93H174.508C167.308 107 141.008 116 138.508 116H121.508Z" fill="#779BDF"/>
</svg>
